<?xml version="1.0" encoding="utf-8"?>
<!-- Generator: Adobe Illustrator 19.0.0, SVG Export Plug-In . SVG Version: 6.00 Build 0)  -->
<svg version="1.1" id="レイヤー_1" xmlns="http://www.w3.org/2000/svg" xmlns:xlink="http://www.w3.org/1999/xlink" x="0px"
	 y="0px" viewBox="0 0 213.7 82.6" style="enable-background:new 0 0 213.7 82.6;" xml:space="preserve">
<style type="text/css">
	.st0{fill:#FFFFFF;}
</style>
<g>
	<path class="st0" d="M8.5,63.7H1V39.6h8.2c0.7,4.9,2.8,8.8,6.3,11.8c3.5,2.9,7.7,4.4,12.7,4.4c3.5,0,6.2-0.7,8.1-2
		c2-1.3,3-3.1,3-5.4c0-3.5-3.7-6.2-11-7.9c-1.2-0.3-2.1-0.5-2.7-0.6c-6.4-1.5-10.8-2.8-13.3-3.8c-2.5-1-4.5-2.1-6.1-3.4
		c-2.1-1.6-3.6-3.5-4.7-5.8C0.5,24.8,0,22.3,0,19.6c0-6.2,2.2-11,6.6-14.4C10.9,1.7,17.1,0,25,0c4,0,7.5,0.4,10.5,1.3
		c3.1,0.8,5.7,2.1,7.9,3.9l1.8-4.3h7.6v22.4h-8.4c-0.5-4.5-2.4-8.1-5.6-10.7c-3.2-2.6-7.4-3.9-12.5-3.9c-3.1,0-5.5,0.6-7.3,1.9
		c-1.8,1.3-2.7,3-2.7,5.2c0,3.1,4,5.5,12.1,7.2c3.1,0.7,5.5,1.2,7.3,1.7c7,1.7,12.2,4.2,15.4,7.4c3.3,3.2,4.9,7.4,4.9,12.6
		c0,6.1-2.3,11-6.9,14.6c-4.6,3.6-10.8,5.4-18.6,5.4c-3.8,0-7.4-0.5-11-1.5c-3.5-1-6.5-2.3-8.9-4L8.5,63.7z"/>
	<path class="st0" d="M62.1,70.9V31.4c0-1.8-0.3-2.9-0.8-3.5c-0.6-0.6-1.7-0.8-3.5-0.8h-2.1v-7.4h21v5.9c1.9-2.6,4-4.4,6.2-5.6
		c2.2-1.2,4.7-1.8,7.6-1.8c5.8,0,10.3,2,13.3,5.9c3.1,3.9,4.6,9.6,4.6,17.1c0,7.1-1.6,12.8-4.8,17c-3.2,4.2-7.4,6.3-12.7,6.3
		c-2.7,0-5.2-0.5-7.4-1.6c-2.2-1.1-4.2-2.7-6.1-4.9v12.8c0,1.8,0.3,3,0.9,3.5c0.6,0.5,1.7,0.8,3.4,0.8h3v7.4h-29v-7.4h2.1
		c1.8,0,2.9-0.3,3.5-0.8C61.8,73.8,62.1,72.7,62.1,70.9z M77.4,41.1c0,5.1,0.6,8.9,1.7,11.3c1.2,2.4,3,3.6,5.5,3.6
		c2.5,0,4.3-1.2,5.4-3.6c1.1-2.4,1.7-6.2,1.7-11.3c0-5.1-0.6-8.9-1.8-11.3c-1.2-2.4-3-3.6-5.4-3.6c-2.4,0-4.2,1.3-5.4,3.8
		C78,32.5,77.4,36.2,77.4,41.1z"/>
	<path class="st0" d="M116.1,32.7v-0.5c0-2.3-0.3-3.7-0.8-4.2c-0.5-0.5-1.6-0.7-3.3-0.7h-3v-7.6h22.5v31.5c0,1.8,0.3,3,0.8,3.5
		c0.5,0.5,1.6,0.8,3.3,0.8h2.3v7.4H109v-7.4h2.8c1.8,0,2.9-0.3,3.5-0.8c0.6-0.5,0.8-1.7,0.8-3.5V32.7z M115.3,8.5
		c0-2.1,0.7-3.9,2.2-5.3c1.5-1.5,3.3-2.2,5.4-2.2c2.1,0,3.9,0.7,5.4,2.2c1.5,1.5,2.2,3.3,2.2,5.3c0,2.1-0.7,3.9-2.2,5.4
		c-1.5,1.5-3.3,2.2-5.4,2.2c-2.1,0-3.9-0.7-5.4-2.2C116,12.5,115.3,10.7,115.3,8.5z"/>
	<path class="st0" d="M141.5,27.1h-6.1v-6.8c3.5-0.4,6.3-2.1,8.4-5.1c2.1-3,3.3-7.1,3.7-12.3h9v16.8h11.1v7.4h-11.1V51
		c0,1.8,0.3,3.1,0.9,3.9c0.6,0.8,1.5,1.3,2.6,1.3c1.5,0,2.5-0.6,3-1.9c0.6-1.2,0.8-3.9,0.8-7.8v-4h7.4v6.4c0,5.4-1.2,9.3-3.7,11.9
		c-2.5,2.6-6.2,3.9-11.3,3.9c-5.3,0-9.1-1.3-11.4-3.9c-2.3-2.6-3.4-7-3.4-13.3V27.1z"/>
	<path class="st0" d="M172.7,62.9v-8.3l23.8-27.4h-5.3c-4.4,0-7.1,0.6-8.1,1.9c-1.1,1.2-1.6,4-1.6,8.2v0.7H174V19.7h39.7V28
		l-23.3,27.5h6.2c3.7,0,6.2-0.6,7.6-1.9c1.4-1.3,2.1-3.7,2.1-7.1c0-0.7,0-1.2,0-1.6c0-0.4,0-0.7-0.1-1.1h7.6v19.1H172.7z"/>
</g>
</svg>
